<?xml version="1.0" standalone="no"?>
<!DOCTYPE svg PUBLIC "-//W3C//DTD SVG 20010904//EN"
 "http://www.w3.org/TR/2001/REC-SVG-20010904/DTD/svg10.dtd">
<svg version="1.0" xmlns="http://www.w3.org/2000/svg"
 width="300.000000pt" height="221.000000pt" viewBox="0 0 300.000000 221.000000"
 preserveAspectRatio="xMidYMid meet">
<metadata>
Created by potrace 1.10, written by Peter Selinger 2001-2011
</metadata>
<g transform="translate(0.000000,221.000000) scale(0.100000,-0.100000)"
fill="#000000" stroke="none">
<path d="M100 1105 l0 -1035 1040 0 1040 0 0 205 0 205 -50 0 -50 0 0 -155 0
-155 -935 0 -935 0 0 935 0 935 935 0 935 0 0 -155 0 -155 50 0 50 0 0 205 0
205 -1040 0 -1040 0 0 -1035z"/>
<path d="M1461 1657 l-45 -12 -51 -135 c-53 -141 -90 -220 -103 -220 -4 0 -15
19 -24 43 -27 63 -95 163 -149 217 l-49 49 -54 -19 c-93 -32 -92 -31 -100
-112 -12 -130 -42 -249 -114 -443 -89 -243 -111 -342 -77 -347 6 -1 34 37 64
85 30 48 56 85 58 84 1 -2 -7 -27 -18 -57 -11 -29 -18 -59 -15 -66 7 -17 46
-19 46 -2 0 6 29 70 64 142 66 134 102 242 132 399 9 48 20 84 24 80 5 -4 25
-48 46 -97 30 -72 39 -85 46 -70 6 13 7 9 3 -13 -4 -30 -1 -35 36 -54 23 -11
38 -15 34 -9 -6 9 -2 9 15 0 12 -6 28 -9 36 -6 9 4 12 2 8 -5 -3 -6 -15 -9
-25 -6 -11 3 -17 1 -13 -4 17 -28 85 9 134 72 l34 44 -43 -40 -43 -40 58 85
c31 47 74 121 94 164 l37 80 17 -25 c25 -39 76 -186 76 -220 0 -16 7 -58 15
-92 8 -34 28 -127 45 -206 31 -141 77 -283 66 -201 -3 19 -8 60 -10 90 -4 47
-3 44 9 -20 7 -41 14 -90 14 -108 1 -35 30 -101 54 -121 24 -19 30 2 33 101 1
49 4 92 8 95 3 4 6 -6 6 -20 0 -15 5 -27 11 -27 21 0 2 136 -46 335 -56 231
-89 330 -170 505 -61 133 -63 135 -96 137 -19 1 -54 -4 -78 -10z m-346 -398
c9 -17 15 -33 13 -35 -3 -2 -12 12 -21 31 -21 43 -13 47 8 4z m592 -401 c-3
-7 -5 -2 -5 12 0 14 2 19 5 13 2 -7 2 -19 0 -25z"/>
<path d="M2224 1646 c-159 -37 -244 -123 -244 -249 0 -91 37 -160 116 -216 59
-43 131 -71 319 -126 86 -25 169 -52 186 -60 16 -9 29 -13 29 -10 0 15 -139
68 -268 101 -78 21 -140 39 -138 41 6 6 239 -55 304 -79 56 -21 132 -63 132
-74 0 -3 -5 -2 -12 2 -7 4 -8 3 -4 -5 4 -6 11 -9 16 -6 10 6 26 -13 39 -48 7
-18 7 -26 1 -22 -6 3 -10 -2 -10 -12 0 -34 -43 -71 -105 -92 -33 -11 -63 -17
-68 -14 -13 8 -394 4 -442 -5 l-40 -7 40 -7 c30 -5 23 -6 -25 -3 -65 4 -120
-11 -135 -35 -13 -21 25 -40 78 -40 47 0 49 -1 43 -24 -4 -17 -1 -26 10 -30
33 -13 441 -6 516 8 155 30 231 75 274 162 53 108 17 234 -91 316 -58 45 -147
80 -340 138 -171 51 -227 77 -239 113 -25 71 46 127 172 135 67 4 86 1 188
-34 62 -21 117 -35 121 -31 16 16 -15 64 -59 92 -55 35 -62 50 -15 31 64 -26
84 -28 90 -6 4 16 -3 25 -31 39 -115 58 -293 83 -408 57z m503 -733 c-4 -3 -7
0 -7 7 0 7 3 10 7 7 3 -4 3 -10 0 -14z m-469 -170 c-27 -2 -69 -2 -95 0 -27 2
-5 3 47 3 52 0 74 -1 48 -3z"/>
<path d="M1500 1410 c0 -7 3 -10 7 -7 3 4 3 10 0 14 -4 3 -7 0 -7 -7z"/>
</g>
</svg>
